<svg width="49" height="48" viewBox="0 0 49 48" fill="none" xmlns="http://www.w3.org/2000/svg">
<path d="M30.5 35.25C30.3528 38.9539 27.2662 42.0988 23.1313 41.9977C22.1693 41.9741 20.9803 41.6388 18.6022 40.968C12.8792 39.3537 7.9111 36.6407 6.71911 30.5631C6.5 29.4459 6.5 28.1888 6.5 25.6745L6.5 22.3255C6.5 19.8112 6.5 18.5541 6.71911 17.4369C7.9111 11.3593 12.8792 8.64627 18.6022 7.032C20.9803 6.36123 22.1693 6.02585 23.1313 6.00232C27.2662 5.90116 30.3528 9.04609 30.5 12.75" stroke="#2762BF" stroke-width="2" stroke-linecap="round"/>
<path d="M20.5 24H42.5M20.5 24C20.5 22.5995 24.4886 19.9831 25.5 19M20.5 24C20.5 25.4005 24.4886 28.0169 25.5 29" stroke="#2762BF" stroke-width="2" stroke-linecap="round" stroke-linejoin="round"/>
</svg>
