<svg width="49" height="48" viewBox="0 0 49 48" fill="none" xmlns="http://www.w3.org/2000/svg">
<path d="M16.4961 32H24.4961M16.4961 22H32.4961" stroke="#2762BF" stroke-width="2" stroke-linecap="round"/>
<path d="M15.5 7C12.3884 7.09335 10.5332 7.43967 9.24955 8.72455C7.49219 10.4835 7.49219 13.3146 7.49219 18.9767L7.49219 31.9888C7.49219 37.6509 7.49219 40.482 9.24955 42.241C11.0069 44 13.8353 44 19.4922 44L29.4922 44C35.149 44 37.9775 44 39.7348 42.241C41.4922 40.482 41.4922 37.6509 41.4922 31.9888V18.9767C41.4922 13.3146 41.4922 10.4835 39.7348 8.72455C38.4511 7.43967 36.596 7.09335 33.4844 7" stroke="#2762BF" stroke-width="2"/>
<path d="M15.4922 7.5C15.4922 5.567 17.0592 4 18.9922 4H29.9922C31.9252 4 33.4922 5.567 33.4922 7.5C33.4922 9.433 31.9252 11 29.9922 11H18.9922C17.0592 11 15.4922 9.433 15.4922 7.5Z" stroke="#2762BF" stroke-width="2" stroke-linejoin="round"/>
</svg>
